<?xml version="1.0" encoding="UTF-8" standalone="no"?>
<!-- Created with Inkscape (http://www.inkscape.org/) -->

<svg
   xmlns:dc="http://purl.org/dc/elements/1.1/"
   xmlns:cc="http://creativecommons.org/ns#"
   xmlns:rdf="http://www.w3.org/1999/02/22-rdf-syntax-ns#"
   xmlns:svg="http://www.w3.org/2000/svg"
   xmlns="http://www.w3.org/2000/svg"
   version="1.1"
   width="128"
   height="32"
   id="svg2">
  <defs
     id="defs4" />
  <metadata
     id="metadata7">
    <rdf:RDF>
      <cc:Work
         rdf:about="">
        <dc:format>image/svg+xml</dc:format>
        <dc:type
           rdf:resource="http://purl.org/dc/dcmitype/StillImage" />
        <dc:title></dc:title>
      </cc:Work>
    </rdf:RDF>
  </metadata>
  <g
     transform="translate(0,-1020.3622)"
     id="layer1">
    <path
       d="m 27.5,13.25 a 11.25,11.25 0 1 1 -22.5,0 11.25,11.25 0 1 1 22.5,0 z"
       transform="translate(0,1020.3622)"
       id="path2993"
       style="fill:#d38d5f;fill-opacity:1;fill-rule:nonzero;stroke:none" />
    <rect
       width="12.5"
       height="7.5"
       x="10"
       y="22"
       transform="translate(0,1020.3622)"
       id="rect2995"
       style="fill:#d38d5f;fill-opacity:1;fill-rule:nonzero;stroke:none" />
    <rect
       width="7.5"
       height="2.5"
       x="12.5"
       y="24.5"
       transform="translate(0,1020.3622)"
       id="rect2997"
       style="fill:#deaa87;fill-opacity:1;fill-rule:nonzero;stroke:none" />
    <rect
       width="7.5"
       height="2.5"
       x="17.5"
       y="29.5"
       transform="translate(0,1020.3622)"
       id="rect2999"
       style="fill:#000000;fill-opacity:1;fill-rule:nonzero;stroke:none" />
    <rect
       width="7.5"
       height="2.5"
       x="7.5"
       y="29.5"
       transform="translate(0,1020.3622)"
       id="rect3001"
       style="fill:#000000;fill-opacity:1;fill-rule:nonzero;stroke:none" />
    <path
       d="m 15,10.75 a 2.5,3.75 0 1 1 -5,0 2.5,3.75 0 1 1 5,0 z"
       transform="translate(0,1020.3622)"
       id="path3003"
       style="fill:#ffffff;fill-opacity:1;fill-rule:nonzero;stroke:none" />
    <path
       d="m 22.5,10.75 a 2.5,3.75 0 1 1 -5,0 2.5,3.75 0 1 1 5,0 z"
       transform="translate(0,1020.3622)"
       id="path3005"
       style="fill:#ffffff;fill-opacity:1;fill-rule:nonzero;stroke:none" />
    <path
       d="m 15,10.75 a 1.25,1.25 0 1 1 -2.5,0 1.25,1.25 0 1 1 2.5,0 z"
       transform="translate(0,1020.3622)"
       id="path3010"
       style="fill:#000000;fill-opacity:1;fill-rule:nonzero;stroke:none" />
    <path
       d="m 22.5,10.75 a 1.25,1.25 0 1 1 -2.5,0 1.25,1.25 0 1 1 2.5,0 z"
       transform="translate(0,1020.3622)"
       id="path3012"
       style="fill:#000000;fill-opacity:1;fill-rule:nonzero;stroke:none" />
    <path
       d="M 12.5,17 20,17 z"
       transform="translate(0,1020.3622)"
       id="path3014"
       style="fill:none;stroke:#000000;stroke-width:0.25;stroke-linecap:butt;stroke-linejoin:miter;stroke-opacity:1" />
    <rect
       width="2.5"
       height="2.5"
       x="15"
       y="1037.3622"
       id="rect3016"
       style="fill:#ffffff;fill-opacity:1;fill-rule:nonzero;stroke:none" />
    <path
       d="m 27.5,13.25 a 11.25,11.25 0 1 1 -22.5,0 11.25,11.25 0 1 1 22.5,0 z"
       transform="translate(32.5,1020.3622)"
       id="path2993-1"
       style="fill:#d38d5f;fill-opacity:1;fill-rule:nonzero;stroke:none" />
    <rect
       width="12.5"
       height="7.5"
       x="42.5"
       y="1042.3622"
       id="rect2995-5"
       style="fill:#d38d5f;fill-opacity:1;fill-rule:nonzero;stroke:none" />
    <rect
       width="7.5"
       height="2.5"
       x="50"
       y="1049.8622"
       id="rect2999-1"
       style="fill:#000000;fill-opacity:1;fill-rule:nonzero;stroke:none" />
    <rect
       width="7.5"
       height="2.5"
       x="40"
       y="1049.8622"
       id="rect3001-5"
       style="fill:#000000;fill-opacity:1;fill-rule:nonzero;stroke:none" />
    <path
       d="m 27.5,13.25 a 11.25,11.25 0 1 1 -22.5,0 11.25,11.25 0 1 1 22.5,0 z"
       transform="translate(63.75,1020.3622)"
       id="path2993-1-4"
       style="fill:#d38d5f;fill-opacity:1;fill-rule:nonzero;stroke:none" />
    <rect
       width="5"
       height="7.5"
       x="77.5"
       y="22"
       transform="translate(0,1020.3622)"
       id="rect3111"
       style="fill:#d38d5f;fill-opacity:1;fill-rule:nonzero;stroke:none" />
    <rect
       width="7.5"
       height="2.5"
       x="77.5"
       y="29.5"
       transform="translate(0,1020.3622)"
       id="rect3113"
       style="fill:#000000;fill-opacity:1;fill-rule:nonzero;stroke:none" />
    <path
       d="m 90,9.5 a 1.25,2.5 0 1 1 -2.5,0 1.25,2.5 0 1 1 2.5,0 z"
       transform="matrix(1,0,0,1.5,0,1016.8622)"
       id="path3115"
       style="fill:#ffffff;fill-opacity:1;fill-rule:nonzero;stroke:none" />
    <path
       d="m 90,10.5 a 0.5,1 0 1 1 -1,0 0.5,1 0 1 1 1,0 z"
       transform="matrix(1.5,0,0,1.25,-45,1017.9872)"
       id="path3167"
       style="fill:#000000;fill-opacity:1;fill-rule:nonzero;stroke:none" />
    <path
       d="m 27.5,13.25 a 11.25,11.25 0 1 1 -22.5,0 11.25,11.25 0 1 1 22.5,0 z"
       transform="matrix(-1,0,0,1,128.75,1020.3622)"
       id="path2993-1-4-0"
       style="fill:#d38d5f;fill-opacity:1;fill-rule:nonzero;stroke:none" />
    <rect
       width="5"
       height="7.5"
       x="-115"
       y="1042.3622"
       transform="scale(-1,1)"
       id="rect3111-3"
       style="fill:#d38d5f;fill-opacity:1;fill-rule:nonzero;stroke:none" />
    <rect
       width="7.5"
       height="2.5"
       x="-115"
       y="1049.8622"
       transform="scale(-1,1)"
       id="rect3113-4"
       style="fill:#000000;fill-opacity:1;fill-rule:nonzero;stroke:none" />
    <path
       d="m 90,9.5 a 1.25,2.5 0 1 1 -2.5,0 1.25,2.5 0 1 1 2.5,0 z"
       transform="matrix(-1,0,0,1.5,192.5,1016.8622)"
       id="path3115-6"
       style="fill:#ffffff;fill-opacity:1;fill-rule:nonzero;stroke:none" />
    <path
       d="m 90,10.5 a 0.5,1 0 1 1 -1,0 0.5,1 0 1 1 1,0 z"
       transform="matrix(-1.5,0,0,1.25,237.5,1017.9872)"
       id="path3167-6"
       style="fill:#000000;fill-opacity:1;fill-rule:nonzero;stroke:none" />
  </g>
</svg>
