<?xml version="1.0" encoding="UTF-8" standalone="no"?>
<!-- Created with Inkscape (http://www.inkscape.org/) -->

<svg
   xmlns:dc="http://purl.org/dc/elements/1.1/"
   xmlns:cc="http://creativecommons.org/ns#"
   xmlns:rdf="http://www.w3.org/1999/02/22-rdf-syntax-ns#"
   xmlns:svg="http://www.w3.org/2000/svg"
   xmlns="http://www.w3.org/2000/svg"
   xmlns:sodipodi="http://sodipodi.sourceforge.net/DTD/sodipodi-0.dtd"
   xmlns:inkscape="http://www.inkscape.org/namespaces/inkscape"
   width="128"
   height="32"
   id="svg2"
   version="1.1"
   inkscape:version="0.48.1 r9760"
   sodipodi:docname="New document 1">
  <defs
     id="defs4" />
  <sodipodi:namedview
     id="base"
     pagecolor="#ffffff"
     bordercolor="#666666"
     borderopacity="1.0"
     inkscape:pageopacity="0.0"
     inkscape:pageshadow="2"
     inkscape:zoom="8"
     inkscape:cx="64"
     inkscape:cy="19.427352"
     inkscape:document-units="px"
     inkscape:current-layer="layer1"
     showgrid="true"
     inkscape:window-width="1366"
     inkscape:window-height="768"
     inkscape:window-x="0"
     inkscape:window-y="0"
     inkscape:window-maximized="1">
    <inkscape:grid
       type="xygrid"
       id="grid2985"
       empspacing="5"
       visible="true"
       enabled="true"
       snapvisiblegridlinesonly="true"
       spacingx="0.5px"
       spacingy="0.5px"
       empcolor="#0000ff"
       empopacity="0.25098039" />
    <inkscape:grid
       type="xygrid"
       id="grid2987"
       empspacing="5"
       visible="true"
       enabled="true"
       snapvisiblegridlinesonly="true"
       spacingx="32px"
       spacingy="32px"
       color="#fc00ff"
       opacity="0.96470588" />
  </sodipodi:namedview>
  <metadata
     id="metadata7">
    <rdf:RDF>
      <cc:Work
         rdf:about="">
        <dc:format>image/svg+xml</dc:format>
        <dc:type
           rdf:resource="http://purl.org/dc/dcmitype/StillImage" />
        <dc:title></dc:title>
      </cc:Work>
    </rdf:RDF>
  </metadata>
  <g
     inkscape:label="Layer 1"
     inkscape:groupmode="layer"
     id="layer1"
     transform="translate(0,-1020.3622)">
    <path
       sodipodi:type="arc"
       style="fill:#d38d5f;fill-opacity:1;fill-rule:nonzero;stroke:none"
       id="path2993"
       sodipodi:cx="16.25"
       sodipodi:cy="13.25"
       sodipodi:rx="11.25"
       sodipodi:ry="11.25"
       d="m 27.5,13.25 a 11.25,11.25 0 1 1 -22.5,0 11.25,11.25 0 1 1 22.5,0 z"
       transform="translate(0,1020.3622)" />
    <rect
       style="fill:#d38d5f;fill-opacity:1;fill-rule:nonzero;stroke:none"
       id="rect2995"
       width="12.5"
       height="7.5"
       x="10"
       y="22"
       transform="translate(0,1020.3622)" />
    <rect
       style="fill:#deaa87;fill-opacity:1;fill-rule:nonzero;stroke:none"
       id="rect2997"
       width="7.5"
       height="2.5"
       x="12.5"
       y="24.5"
       transform="translate(0,1020.3622)" />
    <rect
       style="fill:#000000;fill-opacity:1;fill-rule:nonzero;stroke:none"
       id="rect2999"
       width="7.5"
       height="2.5"
       x="17.5"
       y="29.5"
       transform="translate(0,1020.3622)" />
    <rect
       style="fill:#000000;fill-opacity:1;fill-rule:nonzero;stroke:none"
       id="rect3001"
       width="7.5"
       height="2.5"
       x="7.5"
       y="29.5"
       transform="translate(0,1020.3622)" />
    <path
       sodipodi:type="arc"
       style="fill:#ffffff;fill-opacity:1;fill-rule:nonzero;stroke:none"
       id="path3003"
       sodipodi:cx="12.5"
       sodipodi:cy="10.75"
       sodipodi:rx="2.5"
       sodipodi:ry="3.75"
       d="m 15,10.75 a 2.5,3.75 0 1 1 -5,0 2.5,3.75 0 1 1 5,0 z"
       transform="translate(0,1020.3622)" />
    <path
       sodipodi:type="arc"
       style="fill:#ffffff;fill-opacity:1;fill-rule:nonzero;stroke:none"
       id="path3005"
       sodipodi:cx="20"
       sodipodi:cy="10.75"
       sodipodi:rx="2.5"
       sodipodi:ry="3.75"
       d="m 22.5,10.75 a 2.5,3.75 0 1 1 -5,0 2.5,3.75 0 1 1 5,0 z"
       transform="translate(0,1020.3622)" />
    <path
       sodipodi:type="arc"
       style="fill:#000000;fill-opacity:1;fill-rule:nonzero;stroke:none"
       id="path3010"
       sodipodi:cx="13.75"
       sodipodi:cy="10.75"
       sodipodi:rx="1.25"
       sodipodi:ry="1.25"
       d="m 15,10.75 a 1.25,1.25 0 1 1 -2.5,0 1.25,1.25 0 1 1 2.5,0 z"
       transform="translate(0,1020.3622)" />
    <path
       sodipodi:type="arc"
       style="fill:#000000;fill-opacity:1;fill-rule:nonzero;stroke:none"
       id="path3012"
       sodipodi:cx="21.25"
       sodipodi:cy="10.75"
       sodipodi:rx="1.25"
       sodipodi:ry="1.25"
       d="m 22.5,10.75 a 1.25,1.25 0 1 1 -2.5,0 1.25,1.25 0 1 1 2.5,0 z"
       transform="translate(0,1020.3622)" />
    <path
       style="fill:none;stroke:#000000;stroke-width:0.25;stroke-linecap:butt;stroke-linejoin:miter;stroke-opacity:1"
       d="M 12.5,17 20,17 z"
       id="path3014"
       inkscape:connector-curvature="0"
       transform="translate(0,1020.3622)" />
    <rect
       style="fill:#ffffff;fill-opacity:1;fill-rule:nonzero;stroke:none"
       id="rect3016"
       width="2.5"
       height="2.5"
       x="15"
       y="1037.3622" />
    <path
       transform="translate(32.5,1020.3622)"
       sodipodi:type="arc"
       style="fill:#d38d5f;fill-opacity:1;fill-rule:nonzero;stroke:none"
       id="path2993-1"
       sodipodi:cx="16.25"
       sodipodi:cy="13.25"
       sodipodi:rx="11.25"
       sodipodi:ry="11.25"
       d="m 27.5,13.25 a 11.25,11.25 0 1 1 -22.5,0 11.25,11.25 0 1 1 22.5,0 z" />
    <rect
       style="fill:#d38d5f;fill-opacity:1;fill-rule:nonzero;stroke:none"
       id="rect2995-5"
       width="12.5"
       height="7.5"
       x="42.5"
       y="1042.3622" />
    <rect
       style="fill:#000000;fill-opacity:1;fill-rule:nonzero;stroke:none"
       id="rect2999-1"
       width="7.5"
       height="2.5"
       x="50"
       y="1049.8622" />
    <rect
       style="fill:#000000;fill-opacity:1;fill-rule:nonzero;stroke:none"
       id="rect3001-5"
       width="7.5"
       height="2.5"
       x="40"
       y="1049.8622" />
    <path
       transform="translate(63.75,1020.3622)"
       sodipodi:type="arc"
       style="fill:#d38d5f;fill-opacity:1;fill-rule:nonzero;stroke:none"
       id="path2993-1-4"
       sodipodi:cx="16.25"
       sodipodi:cy="13.25"
       sodipodi:rx="11.25"
       sodipodi:ry="11.25"
       d="m 27.5,13.25 a 11.25,11.25 0 1 1 -22.5,0 11.25,11.25 0 1 1 22.5,0 z" />
    <rect
       style="fill:#d38d5f;fill-opacity:1;fill-rule:nonzero;stroke:none"
       id="rect3111"
       width="5"
       height="7.5"
       x="77.5"
       y="22"
       transform="translate(0,1020.3622)" />
    <rect
       style="fill:#000000;fill-opacity:1;fill-rule:nonzero;stroke:none"
       id="rect3113"
       width="7.5"
       height="2.5"
       x="77.5"
       y="29.5"
       transform="translate(0,1020.3622)" />
    <path
       sodipodi:type="arc"
       style="fill:#ffffff;fill-opacity:1;fill-rule:nonzero;stroke:none"
       id="path3115"
       sodipodi:cx="88.75"
       sodipodi:cy="9.5"
       sodipodi:rx="1.25"
       sodipodi:ry="2.5"
       d="m 90,9.5 a 1.25,2.5 0 1 1 -2.5,0 1.25,2.5 0 1 1 2.5,0 z"
       transform="matrix(1,0,0,1.5,0,1016.8622)" />
    <path
       sodipodi:type="arc"
       style="fill:#000000;fill-opacity:1;fill-rule:nonzero;stroke:none"
       id="path3167"
       sodipodi:cx="89.5"
       sodipodi:cy="10.5"
       sodipodi:rx="0.5"
       sodipodi:ry="1"
       d="m 90,10.5 a 0.5,1 0 1 1 -1,0 0.5,1 0 1 1 1,0 z"
       transform="matrix(1.5,0,0,1.25,-45,1017.9872)" />
    <path
       transform="matrix(-1,0,0,1,128.75,1020.3622)"
       sodipodi:type="arc"
       style="fill:#d38d5f;fill-opacity:1;fill-rule:nonzero;stroke:none"
       id="path2993-1-4-0"
       sodipodi:cx="16.25"
       sodipodi:cy="13.25"
       sodipodi:rx="11.25"
       sodipodi:ry="11.25"
       d="m 27.5,13.25 a 11.25,11.25 0 1 1 -22.5,0 11.25,11.25 0 1 1 22.5,0 z" />
    <rect
       style="fill:#d38d5f;fill-opacity:1;fill-rule:nonzero;stroke:none"
       id="rect3111-3"
       width="5"
       height="7.5"
       x="-115"
       y="1042.3622"
       transform="scale(-1,1)" />
    <rect
       style="fill:#000000;fill-opacity:1;fill-rule:nonzero;stroke:none"
       id="rect3113-4"
       width="7.5"
       height="2.5"
       x="-115"
       y="1049.8622"
       transform="scale(-1,1)" />
    <path
       sodipodi:type="arc"
       style="fill:#ffffff;fill-opacity:1;fill-rule:nonzero;stroke:none"
       id="path3115-6"
       sodipodi:cx="88.75"
       sodipodi:cy="9.5"
       sodipodi:rx="1.25"
       sodipodi:ry="2.5"
       d="m 90,9.5 a 1.25,2.5 0 1 1 -2.5,0 1.25,2.5 0 1 1 2.5,0 z"
       transform="matrix(-1,0,0,1.5,192.5,1016.8622)" />
    <path
       sodipodi:type="arc"
       style="fill:#000000;fill-opacity:1;fill-rule:nonzero;stroke:none"
       id="path3167-6"
       sodipodi:cx="89.5"
       sodipodi:cy="10.5"
       sodipodi:rx="0.5"
       sodipodi:ry="1"
       d="m 90,10.5 a 0.5,1 0 1 1 -1,0 0.5,1 0 1 1 1,0 z"
       transform="matrix(-1.5,0,0,1.25,237.5,1017.9872)" />
  </g>
</svg>
