<?xml version="1.0" encoding="UTF-8" standalone="no"?>
<!-- Created with Inkscape (http://www.inkscape.org/) -->

<svg
   xmlns:dc="http://purl.org/dc/elements/1.1/"
   xmlns:cc="http://creativecommons.org/ns#"
   xmlns:rdf="http://www.w3.org/1999/02/22-rdf-syntax-ns#"
   xmlns:svg="http://www.w3.org/2000/svg"
   xmlns="http://www.w3.org/2000/svg"
   xmlns:sodipodi="http://sodipodi.sourceforge.net/DTD/sodipodi-0.dtd"
   xmlns:inkscape="http://www.inkscape.org/namespaces/inkscape"
   width="128"
   height="32"
   id="svg3255"
   version="1.1"
   inkscape:version="0.48.1 r9760"
   sodipodi:docname="New document 9">
  <defs
     id="defs3257" />
  <sodipodi:namedview
     id="base"
     pagecolor="#ffffff"
     bordercolor="#666666"
     borderopacity="1.0"
     inkscape:pageopacity="0.0"
     inkscape:pageshadow="2"
     inkscape:zoom="9"
     inkscape:cx="63.320742"
     inkscape:cy="14.620885"
     inkscape:document-units="px"
     inkscape:current-layer="layer1"
     showgrid="true"
     inkscape:window-width="1366"
     inkscape:window-height="768"
     inkscape:window-x="0"
     inkscape:window-y="0"
     inkscape:window-maximized="1">
    <inkscape:grid
       type="xygrid"
       id="grid3263"
       empspacing="5"
       visible="true"
       enabled="true"
       snapvisiblegridlinesonly="true"
       spacingx="0.0625px"
       spacingy="0.0625px" />
    <inkscape:grid
       type="xygrid"
       id="grid3265"
       empspacing="5"
       visible="true"
       enabled="true"
       snapvisiblegridlinesonly="true"
       spacingx="32px"
       spacingy="32px"
       color="#ff0041"
       opacity="0.89803922" />
  </sodipodi:namedview>
  <metadata
     id="metadata3260">
    <rdf:RDF>
      <cc:Work
         rdf:about="">
        <dc:format>image/svg+xml</dc:format>
        <dc:type
           rdf:resource="http://purl.org/dc/dcmitype/StillImage" />
        <dc:title></dc:title>
      </cc:Work>
    </rdf:RDF>
  </metadata>
  <g
     inkscape:label="Layer 1"
     inkscape:groupmode="layer"
     id="layer1"
     transform="translate(0,-1020.3622)">
    <rect
       style="fill:#37c8ab;fill-opacity:1;fill-rule:nonzero;stroke:none"
       id="rect3313"
       width="26.25"
       height="27.5"
       x="2.5"
       y="2"
       transform="translate(0,1020.3622)" />
    <rect
       style="fill:#000000;fill-opacity:1;fill-rule:nonzero;stroke:none"
       id="rect3315"
       width="7.5"
       height="2.5"
       x="0"
       y="29.5"
       transform="translate(0,1020.3622)" />
    <rect
       style="fill:#000000;fill-opacity:1;fill-rule:nonzero;stroke:none"
       id="rect3317"
       width="7.5"
       height="2.5"
       x="23.75"
       y="29.5"
       transform="translate(0,1020.3622)" />
    <path
       sodipodi:type="arc"
       style="fill:#000000;fill-opacity:1;fill-rule:nonzero;stroke:none"
       id="path3319"
       sodipodi:cx="8.75"
       sodipodi:cy="10.125"
       sodipodi:rx="3.75"
       sodipodi:ry="5.625"
       d="m 12.5,10.125 a 3.75,5.625 0 1 1 -7.5,0 3.75,5.625 0 1 1 7.5,0 z"
       transform="translate(0,1020.3622)" />
    <path
       sodipodi:type="arc"
       style="fill:#ff0000;fill-opacity:1;fill-rule:nonzero;stroke:none"
       id="path3321"
       sodipodi:cx="8.75"
       sodipodi:cy="10.125"
       sodipodi:rx="1.25"
       sodipodi:ry="1.875"
       d="m 10,10.125 a 1.25,1.875 0 1 1 -2.5,0 1.25,1.875 0 1 1 2.5,0 z"
       transform="matrix(2,0,0,1.6666667,-8.75,1013.6122)" />
    <path
       transform="translate(13.75,1020.3622)"
       sodipodi:type="arc"
       style="fill:#000000;fill-opacity:1;fill-rule:nonzero;stroke:none"
       id="path3319-1"
       sodipodi:cx="8.75"
       sodipodi:cy="10.125"
       sodipodi:rx="3.75"
       sodipodi:ry="5.625"
       d="m 12.5,10.125 a 3.75,5.625 0 1 1 -7.5,0 3.75,5.625 0 1 1 7.5,0 z" />
    <path
       sodipodi:type="arc"
       style="fill:#ff0000;fill-opacity:1;fill-rule:nonzero;stroke:none"
       id="path3321-3"
       sodipodi:cx="8.75"
       sodipodi:cy="10.125"
       sodipodi:rx="1.25"
       sodipodi:ry="1.875"
       d="m 10,10.125 a 1.25,1.875 0 1 1 -2.5,0 1.25,1.875 0 1 1 2.5,0 z"
       transform="matrix(2,0,0,1.6666667,5,1013.6122)" />
    <path
       style="fill:#ffffff;stroke:#000000;stroke-width:0.25;stroke-linecap:butt;stroke-linejoin:miter;stroke-opacity:1"
       d="M 7.5,22 8.75,19.5 10,22 11.25,19.5 12.5,22 13.75,19.5 15,22 16.25,19.5 17.5,22 18.75,19.5 20,22 21.25,19.5 22.5,22 23.75,19.5 25,22 z"
       id="path3344"
       inkscape:connector-curvature="0"
       transform="translate(0,1020.3622)" />
    <rect
       style="fill:#37c8ab;fill-opacity:1;fill-rule:nonzero;stroke:none"
       id="rect3313-1"
       width="26.25"
       height="27.5"
       x="35"
       y="1022.3622" />
    <rect
       style="fill:#000000;fill-opacity:1;fill-rule:nonzero;stroke:none"
       id="rect3315-6"
       width="7.5"
       height="2.5"
       x="32.5"
       y="1049.8622" />
    <rect
       style="fill:#000000;fill-opacity:1;fill-rule:nonzero;stroke:none"
       id="rect3317-4"
       width="7.5"
       height="2.5"
       x="56.25"
       y="1049.8622" />
    <rect
       style="fill:#37c8ab;fill-opacity:1;fill-rule:nonzero;stroke:none"
       id="rect3313-1-9"
       width="26.25"
       height="27.5"
       x="66.25"
       y="1022.3622" />
    <rect
       style="fill:#000000;fill-opacity:1;fill-rule:nonzero;stroke:none"
       id="rect3403"
       width="29.75"
       height="2.5"
       x="66.25"
       y="29.5"
       transform="translate(0,1020.3622)" />
    <path
       transform="matrix(0.66666667,0,0,1,82.916667,1020.3622)"
       sodipodi:type="arc"
       style="fill:#000000;fill-opacity:1;fill-rule:nonzero;stroke:none"
       id="path3319-0"
       sodipodi:cx="8.75"
       sodipodi:cy="10.125"
       sodipodi:rx="3.75"
       sodipodi:ry="5.625"
       d="m 12.5,10.125 a 3.75,5.625 0 1 1 -7.5,0 3.75,5.625 0 1 1 7.5,0 z" />
    <path
       sodipodi:type="arc"
       style="fill:#ff0000;fill-opacity:1;fill-rule:nonzero;stroke:none"
       id="path3321-2"
       sodipodi:cx="8.75"
       sodipodi:cy="10.125"
       sodipodi:rx="1.25"
       sodipodi:ry="1.875"
       d="m 10,10.125 a 1.25,1.875 0 1 1 -2.5,0 1.25,1.875 0 1 1 2.5,0 z"
       transform="matrix(1.3333333,0,0,1.6666667,77.916667,1012.9872)" />
    <rect
       style="fill:#37c8ab;fill-opacity:1;fill-rule:nonzero;stroke:none"
       id="rect3313-1-9-7"
       width="26.25"
       height="27.5"
       x="-127.5"
       y="1022.3622"
       transform="scale(-1,1)" />
    <rect
       style="fill:#000000;fill-opacity:1;fill-rule:nonzero;stroke:none"
       id="rect3403-2"
       width="29.75"
       height="2.5"
       x="-127.5"
       y="1049.8622"
       transform="scale(-1,1)" />
    <path
       transform="matrix(-0.66666667,0,0,1,110.83333,1020.3622)"
       sodipodi:type="arc"
       style="fill:#000000;fill-opacity:1;fill-rule:nonzero;stroke:none"
       id="path3319-0-8"
       sodipodi:cx="8.75"
       sodipodi:cy="10.125"
       sodipodi:rx="3.75"
       sodipodi:ry="5.625"
       d="m 12.5,10.125 a 3.75,5.625 0 1 1 -7.5,0 3.75,5.625 0 1 1 7.5,0 z" />
    <path
       sodipodi:type="arc"
       style="fill:#ff0000;fill-opacity:1;fill-rule:nonzero;stroke:none"
       id="path3321-2-1"
       sodipodi:cx="8.75"
       sodipodi:cy="10.125"
       sodipodi:rx="1.25"
       sodipodi:ry="1.875"
       d="m 10,10.125 a 1.25,1.875 0 1 1 -2.5,0 1.25,1.875 0 1 1 2.5,0 z"
       transform="matrix(-1.3333333,0,0,1.6666667,115.83333,1012.9872)" />
  </g>
</svg>
