<?xml version="1.0" encoding="UTF-8" standalone="no"?>
<!-- Created with Inkscape (http://www.inkscape.org/) -->

<svg
   xmlns:dc="http://purl.org/dc/elements/1.1/"
   xmlns:cc="http://creativecommons.org/ns#"
   xmlns:rdf="http://www.w3.org/1999/02/22-rdf-syntax-ns#"
   xmlns:svg="http://www.w3.org/2000/svg"
   xmlns="http://www.w3.org/2000/svg"
   version="1.1"
   width="128"
   height="32"
   id="svg3255">
  <defs
     id="defs3257" />
  <metadata
     id="metadata3260">
    <rdf:RDF>
      <cc:Work
         rdf:about="">
        <dc:format>image/svg+xml</dc:format>
        <dc:type
           rdf:resource="http://purl.org/dc/dcmitype/StillImage" />
        <dc:title></dc:title>
      </cc:Work>
    </rdf:RDF>
  </metadata>
  <g
     transform="translate(0,-1020.3622)"
     id="layer1">
    <rect
       width="26.25"
       height="27.5"
       x="2.5"
       y="2"
       transform="translate(0,1020.3622)"
       id="rect3313"
       style="fill:#37c8ab;fill-opacity:1;fill-rule:nonzero;stroke:none" />
    <rect
       width="7.5"
       height="2.5"
       x="0"
       y="29.5"
       transform="translate(0,1020.3622)"
       id="rect3315"
       style="fill:#000000;fill-opacity:1;fill-rule:nonzero;stroke:none" />
    <rect
       width="7.5"
       height="2.5"
       x="23.75"
       y="29.5"
       transform="translate(0,1020.3622)"
       id="rect3317"
       style="fill:#000000;fill-opacity:1;fill-rule:nonzero;stroke:none" />
    <path
       d="m 12.5,10.125 a 3.75,5.625 0 1 1 -7.5,0 3.75,5.625 0 1 1 7.5,0 z"
       transform="translate(0,1020.3622)"
       id="path3319"
       style="fill:#000000;fill-opacity:1;fill-rule:nonzero;stroke:none" />
    <path
       d="m 10,10.125 a 1.25,1.875 0 1 1 -2.5,0 1.25,1.875 0 1 1 2.5,0 z"
       transform="matrix(2,0,0,1.6666667,-8.75,1013.6122)"
       id="path3321"
       style="fill:#ff0000;fill-opacity:1;fill-rule:nonzero;stroke:none" />
    <path
       d="m 12.5,10.125 a 3.75,5.625 0 1 1 -7.5,0 3.75,5.625 0 1 1 7.5,0 z"
       transform="translate(13.75,1020.3622)"
       id="path3319-1"
       style="fill:#000000;fill-opacity:1;fill-rule:nonzero;stroke:none" />
    <path
       d="m 10,10.125 a 1.25,1.875 0 1 1 -2.5,0 1.25,1.875 0 1 1 2.5,0 z"
       transform="matrix(2,0,0,1.6666667,5,1013.6122)"
       id="path3321-3"
       style="fill:#ff0000;fill-opacity:1;fill-rule:nonzero;stroke:none" />
    <path
       d="M 7.5,22 8.75,19.5 10,22 11.25,19.5 12.5,22 13.75,19.5 15,22 16.25,19.5 17.5,22 18.75,19.5 20,22 21.25,19.5 22.5,22 23.75,19.5 25,22 z"
       transform="translate(0,1020.3622)"
       id="path3344"
       style="fill:#ffffff;stroke:#000000;stroke-width:0.25;stroke-linecap:butt;stroke-linejoin:miter;stroke-opacity:1" />
    <rect
       width="26.25"
       height="27.5"
       x="35"
       y="1022.3622"
       id="rect3313-1"
       style="fill:#37c8ab;fill-opacity:1;fill-rule:nonzero;stroke:none" />
    <rect
       width="7.5"
       height="2.5"
       x="32.5"
       y="1049.8622"
       id="rect3315-6"
       style="fill:#000000;fill-opacity:1;fill-rule:nonzero;stroke:none" />
    <rect
       width="7.5"
       height="2.5"
       x="56.25"
       y="1049.8622"
       id="rect3317-4"
       style="fill:#000000;fill-opacity:1;fill-rule:nonzero;stroke:none" />
    <rect
       width="26.25"
       height="27.5"
       x="66.25"
       y="1022.3622"
       id="rect3313-1-9"
       style="fill:#37c8ab;fill-opacity:1;fill-rule:nonzero;stroke:none" />
    <rect
       width="29.75"
       height="2.5"
       x="66.25"
       y="29.5"
       transform="translate(0,1020.3622)"
       id="rect3403"
       style="fill:#000000;fill-opacity:1;fill-rule:nonzero;stroke:none" />
    <path
       d="m 12.5,10.125 a 3.75,5.625 0 1 1 -7.5,0 3.75,5.625 0 1 1 7.5,0 z"
       transform="matrix(0.66666667,0,0,1,82.916667,1020.3622)"
       id="path3319-0"
       style="fill:#000000;fill-opacity:1;fill-rule:nonzero;stroke:none" />
    <path
       d="m 10,10.125 a 1.25,1.875 0 1 1 -2.5,0 1.25,1.875 0 1 1 2.5,0 z"
       transform="matrix(1.3333333,0,0,1.6666667,77.916667,1012.9872)"
       id="path3321-2"
       style="fill:#ff0000;fill-opacity:1;fill-rule:nonzero;stroke:none" />
    <rect
       width="26.25"
       height="27.5"
       x="-127.5"
       y="1022.3622"
       transform="scale(-1,1)"
       id="rect3313-1-9-7"
       style="fill:#37c8ab;fill-opacity:1;fill-rule:nonzero;stroke:none" />
    <rect
       width="29.75"
       height="2.5"
       x="-127.5"
       y="1049.8622"
       transform="scale(-1,1)"
       id="rect3403-2"
       style="fill:#000000;fill-opacity:1;fill-rule:nonzero;stroke:none" />
    <path
       d="m 12.5,10.125 a 3.75,5.625 0 1 1 -7.5,0 3.75,5.625 0 1 1 7.5,0 z"
       transform="matrix(-0.66666667,0,0,1,110.83333,1020.3622)"
       id="path3319-0-8"
       style="fill:#000000;fill-opacity:1;fill-rule:nonzero;stroke:none" />
    <path
       d="m 10,10.125 a 1.25,1.875 0 1 1 -2.5,0 1.25,1.875 0 1 1 2.5,0 z"
       transform="matrix(-1.3333333,0,0,1.6666667,115.83333,1012.9872)"
       id="path3321-2-1"
       style="fill:#ff0000;fill-opacity:1;fill-rule:nonzero;stroke:none" />
  </g>
</svg>
